# xmcd
#
# Track frame offsets:
#       150
#       14372
#       35490
#       48090
#       61735
#       76154
#       94755
#       107320
#       123954
#
# Disc length: 2029 seconds
#
# Revision: 0
# Processed by: cddbd v1.5.2PL0 Copyright (c) Steve Scherf et al.
# Submitted via: WhereIsIt 3.25
#
DISCID=5c07eb09
DTITLE=Solaris Blues Band - Kuca od prasine
DYEAR=1900
DGENRE=
TTITLE0=Beskrajna pruga
TTITLE1=Raskrsce
TTITLE2=Kuca od prasine
TTITLE3=U kasni sat
TTITLE4=A sta ako...
TTITLE5=Kada sve skonca
TTITLE6=Kao druga zena
TTITLE7=Na kraju sveta
TTITLE8=Sreca (inst)
EXTD=
EXTT0=
EXTT1=
EXTT2=
EXTT3=
EXTT4=
EXTT5=
EXTT6=
EXTT7=
EXTT8=
PLAYORDER=
